# xmcd
#
# Track frame offsets:
#	150
#	19740
#	32925
#	48473
#	68648
#	87983
#	107551
#	132054
#	145802
#	158732
#	182822
#	200845
#	220188
#
# Disc length: 3174 seconds
#
# Revision: 1
# Processed by: cddbd v1.5.2PL0 Copyright (c) Steve Scherf et al.
# Submitted via: audiograbber 1.83.01
#
DISCID=b70c640d
DTITLE=Hugh Laurie - Didn´t it rain?
DYEAR=1900
DGENRE=
TTITLE0=Hugh Laurie - The St. Louis Blues
TTITLE1=Hugh Laurie - Junkers Blues
TTITLE2=Hugh Laurie - Kiss of fire
TTITLE3=Hugh Laurie - Vicksburg Blues
TTITLE4=Hugh Laurie - The Weed Smokers´s dream
TTITLE5=Hugh Laurie - Wild honey
TTITLE6=Hugh Laurie - Send mel to the ´Lectric chair
TTITLE7=Hugh Laurie - Evenin´
TTITLE8=Hugh Laurie - Didn´t it rain?
TTITLE9=Hugh Laurie - Careless love
TTITLE10=Hugh Laurie - One for my baby
TTITLE11=Hugh Laurie - I hate a man like you
TTITLE12=Hugh Laurie - Changes
EXTD=
EXTT0=
EXTT1=
EXTT2=
EXTT3=
EXTT4=
EXTT5=
EXTT6=
EXTT7=
EXTT8=
EXTT9=
EXTT10=
EXTT11=
EXTT12=
PLAYORDER=
